<?xml version="1.0" encoding="utf-8"?>
<!-- Generator: Adobe Illustrator 23.1.0, SVG Export Plug-In . SVG Version: 6.00 Build 0)  -->
<svg version="1.1" id="Layer_1" xmlns="http://www.w3.org/2000/svg" xmlns:xlink="http://www.w3.org/1999/xlink" x="0px" y="0px"
	 viewBox="0 0 1000 1000" style="enable-background:new 0 0 1000 1000;" xml:space="preserve">
<style type="text/css">
	.st0{fill:#0071BC;}
	.st1{fill:#29ABE2;}
	.st2{fill:#C69C6D;}
	.st3{fill:#8C6239;}
</style>
<path class="st0" d="M495,946c-11.2,1-34-2-54-11c-13.3-6-23.3-16.2-34-29c-13.7-16.4-21.4-27.1-36-33c-37.9-15.3-72.7-9.5-92-6
	c-12.7,2.3-54.6,11.1-94,42c-53.7,42.2-68,59-68,59c-3,3.5-11.1,13.4-25,18c-15,5-28.5,1.1-32,0c-10.2-3.3-23.9-11.2-28-21
	c-13-30.9,63.4-94.7,117-128c56.7-35.3,98.2-42.9,111-45c41.1-6.6,70.7-1,80,1c14.7,3.1,32.7,7.2,52,20c8.3,5.5,26.5,16.3,41,38
	c6,9,16.2,25.8,25,32c10,7,26,10,37,11"/>
<path class="st0" d="M494.8,945.9c11.2,1,34-2,54-11c13.3-6,23.3-16.2,34-29c13.7-16.4,21.4-27.1,36-33c37.9-15.3,72.7-9.5,92-6
	c12.7,2.3,54.6,11.1,94,42c53.7,42.2,68,59,68,59c3,3.5,11.1,13.4,25,18c15,5,28.5,1.1,32,0c10.2-3.3,23.9-11.2,28-21
	c13-30.9-63.4-94.7-117-128c-56.7-35.3-98.2-42.9-111-45c-41.1-6.6-70.7-1-80,1c-14.7,3.1-32.7,7.2-52,20c-8.3,5.5-26.5,16.3-41,38
	c-6,9-16.2,25.8-25,32c-10,7-26,10-37,11"/>
<path class="st1" d="M466,853c-5.8,0.7-8.9-18.9-22-38c-13.5-19.7-31-29.3-45-37c-27.4-15-51.9-18-70-20c-12.1-1.3-60.8-5.8-118,15
	c-35.9,13.1-60.5,30.9-80,45c-18.5,13.4-27.8,20.1-34,29c-7.4,10.6-11.7,22.2-19,22c-5.2-0.1-9-6.3-10-8c-11.7-19.3,4.7-49.9,9-58
	c14.9-27.9,36.5-43,51-53c31-21.3,59.9-28.6,74-32c34.4-8.3,61.7-6.9,77-6c16.5,1,45.9,3,81,17c5.9,2.4,31.4,12.8,60,35
	c23,17.9,40,44,50,79C472,850.1,469.8,852.5,466,853z"/>
<path class="st1" d="M523.7,852.7c5.8,0.7,8.9-18.9,22-38c13.5-19.7,31-29.3,45-37c27.4-15,51.9-18,70-20c12.1-1.3,60.8-5.8,118,15
	c35.9,13.1,60.5,30.9,80,45c18.5,13.4,27.8,20.1,34,29c7.4,10.6,11.7,22.2,19,22c5.2-0.1,9-6.3,10-8c11.7-19.3-4.7-49.9-9-58
	c-14.9-27.9-36.5-43-51-53c-31-21.3-59.9-28.6-74-32c-34.4-8.3-61.7-6.9-77-6c-16.5,1-45.9,3-81,17c-5.9,2.4-31.4,12.8-60,35
	c-23,17.9-40,44-50,79C517.7,849.8,519.9,852.2,523.7,852.7z"/>
<path class="st2" d="M664.9,521.6c-1.5,1.4-4.1,2.4-6.8,0.9c-3.3-1.7-6.6-3.4-9.9-5.2c-35.2-18.5-75-39.5-130.7-39.8c0,0,0,0,0,0
	c-1.6,0-3.2,0.7-4.3,1.9c-1.1,1.2-1.7,2.7-1.7,4.4l-0.2,60l1.1,0.5c4.7,2.2,9.5,4.5,14.1,6.6c37.5,17.3,76.3,35.2,120.2,94.6
	c2.7,3.7,2.1,8.8-1.5,11.7c-19.3,15.5-69.4,56.7-118.3,104.9c-13.8,13.5-20.1,29.8-24.7,41.7c-0.9,2.2-1.7,4.4-2.5,6.3l-0.1,0
	c0,0.2-0.1,0.4-0.1,0.6c0,0,0,0.1,0,0.1l0,0c-0.8,3.9-2.2,3.8-4.8,3.6c-2.5-0.2-3.9-1.6-4.1-4.2l0.1,0c0-0.1-0.1-0.2-0.1-0.2
	c0-0.2,0-0.3,0-0.5h-0.2c-0.8-1.9-1.6-4-2.5-6.2c-4.6-11.9-10.9-28.2-24.7-41.7c-48.9-48.1-99.1-89.4-118.3-104.9
	c-3.6-2.9-4.2-8-1.5-11.7c44.6-60.3,81.2-77.3,119.9-95.4c4-1.9,8.2-3.8,12.4-5.8l1.1-0.5l1.8-60c0.1-1.7-0.5-3.2-1.7-4.4
	c-1.1-1.2-2.7-1.9-4.4-1.9c-55.7,0.3-95.6,21.3-130.7,39.8c-3.3,1.7-6.6,3.5-9.9,5.2c-2.8,1.4-5.3,0.5-6.8-0.9
	c-1.5-1.4-2.6-3.9-1.4-6.7c38.3-88.6,55.6-156,51.6-200.4c-0.2-2.7,1.4-4.7,2.8-5.8c1.9-1.6,4.7-2.8,7.3-3
	c19.8-1.8,67.7-6.3,85.4-9.4c0.1,0,8.9-1.6,8.9-5.9v-11.8c0-5-3.9-9.7-8.9-10.6c-17.5-3.3-59.1,2.3-76.2,4.8
	c-0.9,0.1-1.9-0.4-2.3-1.1c-0.4-0.6-0.2-0.8-0.1-1c25.2-41.3,24.9-86.4,24.7-119.4c0-2.9,2.1-5.3,5-5.8c9.4-1.5,19.1-1.2,28.4-1
	c13.1,0.4,24.5,0.7,31.6-4.2c1.1-0.8,1.1-0.8,0.8-19.6c-0.2-9.4-0.4-22.6-0.8-39c-0.6-25.6-1.3-51.4-1.4-55.9
	c5.6-7.5,14.6-12.2,25.4-13.2c11.6-1.1,23.4,2.5,30.2,9c2.6,2.5,5.3,5.7,8.2,9.1c5.7,6.7,11.5,13.6,18.2,17.2
	c6.4,3.5,16.5,2.2,26.3,1c6.7-0.8,13.6-1.7,17.4-0.5L595.7,118c-10.6,3.2-32.4,5.5-46.8-6.9c-1.8-2-8.7-10.6-16.7-22.7l-0.1-0.2
	c-6.8-7.9-12.8-9.7-22.2-6.6l-1.3,0.4l0,1.4c-0.2,9.2-0.1,17.3,0,25.1c0.1,6.7,0.1,13.7,0.1,21.4c0,2.7,0.5,5.3,1.5,7.8l0.6,1.6
	l0.6-0.2c5.2,5.6,20.1,5.1,40.5,4c7-0.4,13.6-0.8,17.7-0.5c2,0.1,3.7,5,3.7,8.8c-0.2,33-0.5,78.1,24.7,119.4c0.1,0.1,0.3,0.4-0.1,1
	c-0.4,0.6-1.4,1.2-2.3,1.1c-17.1-2.6-58.7-8.1-76.2-4.8c-0.4,0.1-8.9,1.7-8.9,5.9v16.6c0,4.3,8.8,5.9,8.9,5.9
	c17.7,3.1,65.6,7.7,85.4,9.4c2.6,0.2,5.4,1.4,7.3,3c1.4,1.2,3,3.2,2.8,5.8c-4,44.4,13.3,111.8,51.6,200.4
	C667.5,517.8,666.3,520.3,664.9,521.6z"/>
<g id="XMLID_1_">
	<g>
		<path class="st3" d="M669.9,513.4c1.7,3.9,0.8,8.3-2.3,11.2c-3.1,2.9-7.6,3.5-11.4,1.5c-3.3-1.7-6.6-3.4-9.9-5.2
			c-36.5-19.2-74.1-39-128.9-39.3h0c-0.6,0-1.1,0.2-1.5,0.6c-0.4,0.4-0.6,0.9-0.6,1.5v0.1l-0.2,57.6c4.3,2,8.7,4.1,12.9,6
			c38,17.5,77.2,35.6,121.7,95.8c4,5.4,3,13-2.2,17.2c-19.2,15.5-69.2,56.6-118,104.7c-13.1,12.9-19,28.1-23.7,40.3
			c-0.9,2.3-1.8,4.6-2.6,6.6c-1.3,5.5-4.3,6.6-7.7,6.6c-0.4,0-0.8,0-1.2,0c-4.5-0.3-7.3-3.1-7.8-7.6c-0.8-1.9-1.6-4-2.5-6.2
			c-4.7-12.2-10.6-27.4-23.7-40.3c-48.8-48-98.8-89.2-118-104.6c-5.3-4.2-6.2-11.8-2.2-17.2c45.2-61.1,84-79.2,121.5-96.6
			c3.7-1.7,7.5-3.5,11.2-5.3l1.8-57.6c0-0.6-0.2-1.1-0.5-1.5c-0.4-0.4-0.9-0.6-1.5-0.6c-54.8,0.3-92.5,20.1-128.9,39.3
			c-3.3,1.8-6.6,3.5-9.9,5.2c-3.8,2-8.3,1.4-11.4-1.5c-3.1-2.9-4-7.3-2.3-11.2c38-88,55.3-154.8,51.3-198.5
			c-0.3-3.4,1.2-6.7,4.2-9.3c2.6-2.2,6.1-3.6,9.5-3.9c19.7-1.8,67.5-6.3,85.1-9.4c2.1-0.4,5-1.5,5.6-2.2v-11.6
			c0-3.1-2.6-6.1-5.6-6.7c-16.9-3.2-58,2.4-74.9,4.9c-2.3,0.4-4.9-0.8-6.2-2.8c-1.1-1.7-1.2-3.6-0.2-5.3
			c24.6-40.3,24.3-84.8,24.1-117.3c0-4.9,3.5-9,8.3-9.8c9.8-1.6,20.1-1.3,29.2-1c11.9,0.4,22.3,0.7,28.4-3
			c0.2-8.1-1.3-70.5-2.4-112.3l0-0.7l0.4-0.5c6.3-8.8,16.5-14.3,28.7-15.4c12.9-1.2,25.6,2.7,33.3,10.1c2.8,2.7,5.5,5.9,8.5,9.4
			c5.4,6.4,11,13,17.1,16.3c5.3,2.9,15.2,1.6,23.9,0.5c8.9-1.1,16.6-2,21.1,0.5l1.2,0.7L599.3,121l-1.2,0.4
			c-11.6,3.9-35.7,6.7-51.9-7.4l-0.2-0.2c-2.2-2.4-9.4-11.6-17.1-23.1c-5.4-6.3-9.4-7.8-16.4-5.7c-0.1,8.5-0.1,16.1,0,23.5
			c0.1,6.8,0.1,13.7,0,21.4c0,2.1,0.4,4.3,1.2,6.2l0.1,0.2l0.2-0.2c4.2,4.8,23.4,3.6,37.5,2.8c7.4-0.4,13.8-0.8,18.2-0.5
			c5.1,0.4,7.4,7.7,7.4,12.8c-0.2,32.5-0.5,77,24.1,117.3c1,1.6,0.9,3.6-0.2,5.3c-1.3,2-3.9,3.2-6.2,2.8c-16.9-2.5-58-8-74.9-4.9
			c-2.1,0.4-4.9,1.5-5.6,2.2v16c0.7,0.7,3.6,1.9,5.6,2.2c17.6,3.1,65.3,7.6,85.1,9.4c3.5,0.3,7,1.7,9.5,3.9c3,2.5,4.5,5.8,4.2,9.3
			C614.7,358.6,631.9,425.4,669.9,513.4z"/>
	</g>
	<g>
	</g>
</g>
</svg>
